<svg xmlns="http://www.w3.org/2000/svg" xmlns:svg="http://www.w3.org/2000/svg" id="svg8418" xml:space="preserve" width="682.66669" height="682.66669" viewBox="0 0 682.66669 682.66669"><defs id="defs8422"><clipPath id="clipPath8440"><path d="M 0,512 H 512 V 0 H 0 Z" id="path8438"></path></clipPath></defs><g id="g8424" transform="matrix(1.3333333,0,0,-1.3333333,0,682.66667)"><g id="g8426" transform="translate(338.709,250.5889)"><path d="m 0,0 v -39.2 l -43.881,-33.04 -43.88,33.04 V 0 Z" style="fill:#fed2a4;fill-opacity:1;fill-rule:nonzero;stroke:none" id="path8428"></path></g><g id="g8430" transform="translate(270.9482,211.3887)"><path d="M 0,0 V 39.199 H -20 V 0 l 43.88,-33.04 10,7.529 z" style="fill:#ffbd86;fill-opacity:1;fill-rule:nonzero;stroke:none" id="path8432"></path></g><g id="g8434"><g id="g8436" clip-path="url(#clipPath8440)"><g id="g8442" transform="translate(124.5176,256)"><path d="m 0,0 h -63.188 c -8.284,0 -15,6.716 -15,15 v 94.958 c 0,8.285 6.716,15 15,15 H 0 c 8.284,0 15,-6.715 15,-15 V 62.479 L 46.062,31.062 H 15 V 15 C 15,6.716 8.284,0 0,0" style="fill:#66bb6a;fill-opacity:1;fill-rule:nonzero;stroke:none" id="path8444"></path></g><g id="g8446" transform="translate(69.626,162.8135)"><path d="m 0,0 h 31.062 v 33.044 c 0,8.577 -6.954,15.531 -15.531,15.531 C 6.953,48.575 0,41.621 0,33.044 Z" style="fill:#fed2a4;fill-opacity:1;fill-rule:nonzero;stroke:none" id="path8448"></path></g><g id="g8450" transform="translate(92.6572,209.4551)"><path d="m 0,0 c -2.225,1.229 -4.779,1.934 -7.5,1.934 -8.578,0 -15.531,-6.954 -15.531,-15.532 v -33.044 h 15 v 33.044 C -8.031,-7.741 -4.787,-2.646 0,0" style="fill:#ffbd86;fill-opacity:1;fill-rule:nonzero;stroke:none" id="path8452"></path></g><g id="g8454" transform="translate(93.4551,69.627)"><path d="m 0,0 c 8.284,0 15,6.715 15,15 v 16.062 l 56.893,73.853 c 3.42,4.439 8.013,7.831 13.261,9.793 l 72.369,27.054 43.85,-33.04 43.851,33.04 98.019,-30.881 c 17.271,-5.63 28.971,-21.73 28.971,-39.92 v -133.05 l -295.09,10e-4 V 15.531 L 23.906,-48.766 C 18.342,-57.111 8.975,-62.125 -1.056,-62.125 h -0.538 c -16.568,0 -30,13.432 -30,30 v 32.124 z" style="fill:#42a5f5;fill-opacity:1;fill-rule:nonzero;stroke:none" id="path8456"></path></g><g id="g8458" transform="translate(314.8281,178.3486)"><path d="M 0,0 37.953,28.597 23.851,33.04 -10,7.534 Z" style="fill:#0593fc;fill-opacity:1;fill-rule:nonzero;stroke:none" id="path8460"></path></g><path d="m 170.579,7.539 h 20 v 93.443 h -20 z" style="fill:#0593fc;fill-opacity:1;fill-rule:nonzero;stroke:none" id="path8462"></path><g id="g8464" transform="translate(81.8613,37.502)"><path d="m 0,0 v 32.124 l 31.594,10e-4 c 8.284,0 15,6.715 15,15 v 16.062 l 56.892,73.854 c 3.42,4.438 8.014,7.83 13.262,9.792 l 59.001,22.056 -6.632,4.998 -72.369,-27.054 C 91.5,144.871 86.906,141.479 83.486,137.041 L 26.594,63.187 V 47.125 c 0,-8.285 -6.716,-15 -15,-15 L -20,32.124 V 0 c 0,-16.568 13.432,-30 30,-30 h 0.538 c 3.353,0 6.626,0.572 9.713,1.629 C 8.47,-24.323 0,-13.154 0,0" style="fill:#0593fc;fill-opacity:1;fill-rule:nonzero;stroke:none" id="path8466"></path></g><path d="M 403.547,38.564 H 170.579 v 62.418 h 232.968 z" style="fill:#ffca28;fill-opacity:1;fill-rule:nonzero;stroke:none" id="path8468"></path><path d="m 170.579,38.564 h 20 v 62.418 h -20 z" style="fill:#f9b916;fill-opacity:1;fill-rule:nonzero;stroke:none" id="path8470"></path><g id="g8472" transform="translate(219.5781,380.248)"><path d="m 0,0 h -15.061 c -11.541,0 -20.897,-9.355 -20.897,-20.897 v -15.659 c 0,-11.541 9.356,-20.897 20.897,-20.897 l 15.061,0 z" style="fill:#fed2a4;fill-opacity:1;fill-rule:nonzero;stroke:none" id="path8474"></path></g><g id="g8476" transform="translate(370.0762,380.248)"><path d="m 0,0 h 15.062 c 11.541,0 20.897,-9.355 20.897,-20.897 v -15.659 c 0,-11.541 -9.356,-20.897 -20.897,-20.897 l -15.062,0 z" style="fill:#fed2a4;fill-opacity:1;fill-rule:nonzero;stroke:none" id="path8478"></path></g><g id="g8480" transform="translate(219.5781,380.958)"><path d="m 0,0 v -72.26 c 0,-38.389 31.12,-69.51 69.511,-69.51 H 80.99 c 38.391,0 69.51,31.121 69.51,69.51 V -0.71 L 75.25,30.965 Z" style="fill:#fff3de;fill-opacity:1;fill-rule:nonzero;stroke:none" id="path8482"></path></g><g id="g8484" transform="translate(239.5781,308.6982)"><path d="M 0,0 V 72.261 L 65.137,99.063 55.25,103.226 -20,72.261 V 0 c 0,-38.39 31.12,-69.51 69.511,-69.51 H 60.99 c 1.432,0 2.85,0.058 4.26,0.143 C 28.846,-67.165 0,-36.958 0,0" style="fill:#ffe5c2;fill-opacity:1;fill-rule:nonzero;stroke:none" id="path8486"></path></g><g id="g8488" transform="translate(191.4883,380.248)"><path d="m 0,0 h 34.512 c 16.568,0 30,13.432 30,30 V 93.19 H 45 c -24.853,0 -45,-20.147 -45,-45 z" style="fill:#546e7a;fill-opacity:1;fill-rule:nonzero;stroke:none" id="path8490"></path></g><g id="g8492" transform="translate(255.999,473.4258)"><path d="m 0,0 v 0.013 h -19.511 c -24.852,0 -45,-20.148 -45,-45 v -48.191 h 20 v 48.191 C -44.511,-20.299 -24.626,-0.264 0,0" style="fill:#435860;fill-opacity:1;fill-rule:nonzero;stroke:none" id="path8494"></path></g><g id="g8496" transform="translate(336.9082,504.498)"><path d="m 0,0 c 34.01,0 61.58,-27.57 61.58,-61.58 v -62.67 H -50.908 c -16.57,0 -30,13.432 -30,30 V -30 c 0,16.569 13.43,30 30,30 z" style="fill:#546e7a;fill-opacity:1;fill-rule:nonzero;stroke:none" id="path8498"></path></g><g id="g8500" transform="translate(275.999,410.248)"><path d="m 0,0 v 64.25 c 0,16.568 13.432,30 30,30 H 10 c -16.568,0 -30,-13.432 -30,-30 V 0 c 0,-16.568 13.432,-30 30,-30 H 30 C 13.432,-30 0,-16.568 0,0" style="fill:#435860;fill-opacity:1;fill-rule:nonzero;stroke:none" id="path8502"></path></g><g id="g8504" transform="translate(250.9482,250.5889)"><path d="M 0,0 V -39.2 L 43.88,-72.24 87.761,-39.2 V 0" style="fill:none;stroke:#000000;stroke-width:15;stroke-linecap:round;stroke-linejoin:round;stroke-miterlimit:10;stroke-dasharray:none;stroke-opacity:1" id="path8506"></path></g><g id="g8508" transform="translate(219.5781,380.248)"><path d="m 0,0 h -15.061 c -11.541,0 -20.897,-9.355 -20.897,-20.897 v -15.659 c 0,-11.541 9.356,-20.897 20.897,-20.897 l 15.061,0 z" style="fill:none;stroke:#000000;stroke-width:15;stroke-linecap:round;stroke-linejoin:round;stroke-miterlimit:10;stroke-dasharray:none;stroke-opacity:1" id="path8510"></path></g><g id="g8512" transform="translate(370.0762,380.248)"><path d="m 0,0 h 15.062 c 11.541,0 20.897,-9.355 20.897,-20.897 v -15.659 c 0,-11.541 -9.356,-20.897 -20.897,-20.897 l -15.062,0 z" style="fill:none;stroke:#000000;stroke-width:15;stroke-linecap:round;stroke-linejoin:round;stroke-miterlimit:10;stroke-dasharray:none;stroke-opacity:1" id="path8514"></path></g><g id="g8516" transform="translate(327.2109,352.9023)"><path d="M 0,0 V -9.844" style="fill:none;stroke:#000000;stroke-width:15;stroke-linecap:round;stroke-linejoin:round;stroke-miterlimit:10;stroke-dasharray:none;stroke-opacity:1" id="path8518"></path></g><g id="g8520" transform="translate(262.5937,352.9023)"><path d="M 0,0 V -9.844" style="fill:none;stroke:#000000;stroke-width:15;stroke-linecap:round;stroke-linejoin:round;stroke-miterlimit:10;stroke-dasharray:none;stroke-opacity:1" id="path8522"></path></g><g id="g8524" transform="translate(313.6377,302.2764)"><path d="m 0,0 c 0,-10.388 -8.421,-18.81 -18.81,-18.81 -10.387,0 -18.808,8.422 -18.808,18.81" style="fill:none;stroke:#000000;stroke-width:15;stroke-linecap:round;stroke-linejoin:round;stroke-miterlimit:10;stroke-dasharray:none;stroke-opacity:1" id="path8526"></path></g><g id="g8528" transform="translate(398.4893,400.1504)"><path d="m 0,0 v -19.9 h -112.49 c -16.57,0 -30,13.429 -30,30 v 64.25 c 0,16.57 13.43,30 30,30 h 50.91 C -27.569,104.35 0,76.779 0,42.77 V 32.689" style="fill:none;stroke:#000000;stroke-width:15;stroke-linecap:round;stroke-linejoin:round;stroke-miterlimit:10;stroke-dasharray:none;stroke-opacity:1" id="path8530"></path></g><g id="g8532" transform="translate(191.4883,380.248)"><path d="m 0,0 h 34.512 c 16.568,0 30,13.432 30,30 V 93.19 H 45 c -24.853,0 -45,-20.147 -45,-45 z" style="fill:none;stroke:#000000;stroke-width:15;stroke-linecap:round;stroke-linejoin:round;stroke-miterlimit:10;stroke-dasharray:none;stroke-opacity:1" id="path8534"></path></g><g id="g8536" transform="translate(61.3301,69.626)"><path d="m 0,0 h 32.125 c 8.284,0 15,6.716 15,15 v 63.188 c 0,8.284 -6.716,15 -15,15 H 0 c -8.284,0 -15,-6.716 -15,-15 V 15 C -15,6.716 -8.284,0 0,0" style="fill:#fff3de;fill-opacity:1;fill-rule:nonzero;stroke:none" id="path8538"></path></g><g id="g8540" transform="translate(66.3301,84.626)"><path d="m 0,0 v 63.188 c 0,8.284 6.716,15 15,15 H -5 c -8.284,0 -15,-6.716 -15,-15 V 0 c 0,-8.284 6.716,-15 15,-15 H 15 C 6.716,-15 0,-8.284 0,0" style="fill:#ffe5c2;fill-opacity:1;fill-rule:nonzero;stroke:none" id="path8542"></path></g><g id="g8544" transform="translate(465.6699,84.6396)"><path d="M 0,0 V -77.1 H -295.091 V 0.521 l -53.22,-64.3 c -5.559,-8.341 -14.929,-13.361 -24.96,-13.361 h -0.54 c -16.57,0 -30,13.43 -30,30 v 32.13 h 31.601 c 8.279,0 15,6.71 15,15 v 16.061 l 56.89,73.849 c 3.42,4.441 8.009,7.83 13.259,9.8 l 72.371,27.05 43.849,-33.04 43.851,33.04 98.019,-30.88 C -11.7,90.24 0,74.141 0,55.95 V 32.69" style="fill:none;stroke:#000000;stroke-width:15;stroke-linecap:round;stroke-linejoin:round;stroke-miterlimit:10;stroke-dasharray:none;stroke-opacity:1" id="path8546"></path></g><g id="g8548" transform="translate(403.5469,114.5518)"><path d="M 0,0 V -107.05" style="fill:none;stroke:#000000;stroke-width:15;stroke-linecap:round;stroke-linejoin:round;stroke-miterlimit:10;stroke-dasharray:none;stroke-opacity:1" id="path8550"></path></g><g id="g8552" transform="translate(61.3301,69.626)"><path d="m 0,0 h 32.125 c 8.284,0 15,6.716 15,15 v 63.188 c 0,8.284 -6.716,15 -15,15 H 0 c -8.284,0 -15,-6.716 -15,-15 V 15 C -15,6.716 -8.284,0 0,0 Z" style="fill:none;stroke:#000000;stroke-width:15;stroke-linecap:round;stroke-linejoin:round;stroke-miterlimit:10;stroke-dasharray:none;stroke-opacity:1" id="path8554"></path></g><g id="g8556" transform="translate(108.4551,131.751)"><path d="M 0,0 H -31.062" style="fill:none;stroke:#000000;stroke-width:15;stroke-linecap:round;stroke-linejoin:round;stroke-miterlimit:10;stroke-dasharray:none;stroke-opacity:1" id="path8558"></path></g><g id="g8560" transform="translate(108.4551,100.6885)"><path d="M 0,0 H -31.062" style="fill:none;stroke:#000000;stroke-width:15;stroke-linecap:round;stroke-linejoin:round;stroke-miterlimit:10;stroke-dasharray:none;stroke-opacity:1" id="path8562"></path></g><g id="g8564" transform="translate(100.6885,71.4844)"><path d="M 0,0 V -17.39" style="fill:none;stroke:#000000;stroke-width:15;stroke-linecap:round;stroke-linejoin:round;stroke-miterlimit:10;stroke-dasharray:none;stroke-opacity:1" id="path8566"></path></g><g id="g8568" transform="translate(170.5791,85.1582)"><path d="M 0,0 V 31.062" style="fill:none;stroke:#000000;stroke-width:15;stroke-linecap:round;stroke-linejoin:round;stroke-miterlimit:10;stroke-dasharray:none;stroke-opacity:1" id="path8570"></path></g><g id="g8572" transform="translate(69.626,162.8135)"><path d="m 0,0 h 31.062 v 33.044 c 0,8.577 -6.954,15.531 -15.531,15.531 C 6.953,48.575 0,41.621 0,33.044 Z" style="fill:none;stroke:#000000;stroke-width:15;stroke-linecap:round;stroke-linejoin:round;stroke-miterlimit:10;stroke-dasharray:none;stroke-opacity:1" id="path8574"></path></g><g id="g8576" transform="translate(267.2891,38.5596)"><path d="M 0,0 H 136.261 V 62.421 H -96.71 V 0 h 64.03" style="fill:none;stroke:#000000;stroke-width:15;stroke-linecap:round;stroke-linejoin:round;stroke-miterlimit:10;stroke-dasharray:none;stroke-opacity:1" id="path8578"></path></g><g id="g8580" transform="translate(69.627,318.4795)"><path d="M 0,0 15.531,-15.531 46.594,15.531" style="fill:none;stroke:#000000;stroke-width:15;stroke-linecap:round;stroke-linejoin:round;stroke-miterlimit:10;stroke-dasharray:none;stroke-opacity:1" id="path8582"></path></g><g id="g8584" transform="translate(124.5176,256)"><path d="m 0,0 h -63.188 c -8.284,0 -15,6.716 -15,15 v 94.958 c 0,8.285 6.716,15 15,15 H 0 c 8.284,0 15,-6.715 15,-15 V 62.479 L 46.062,31.062 H 15 V 15 C 15,6.716 8.284,0 0,0 Z" style="fill:none;stroke:#000000;stroke-width:15;stroke-linecap:round;stroke-linejoin:round;stroke-miterlimit:10;stroke-dasharray:none;stroke-opacity:1" id="path8586"></path></g><g id="g8588" transform="translate(219.5781,380.248)"><path d="m 0,0 v -71.55 c 0,-38.389 31.12,-69.51 69.511,-69.51 H 80.99 c 38.391,0 69.51,31.121 69.51,69.51 V 0" style="fill:none;stroke:#000000;stroke-width:15;stroke-linecap:round;stroke-linejoin:round;stroke-miterlimit:10;stroke-dasharray:none;stroke-opacity:1" id="path8590"></path></g></g></g></g></svg>