<svg xmlns:xlink="http://www.w3.org/1999/xlink" xmlns="http://www.w3.org/2000/svg" id="Layer_1" data-name="Layer 1" viewBox="0 0 156.34 166.35" width="156.34"  height="166.35" ><defs><style> .cls-1 { fill: none; stroke: #d5f2f6; stroke-linecap: round; stroke-miterlimit: 10; stroke-width: 2px; } .cls-2 { fill: #1a808d; } .cls-3 { font-family: NotoSans-Medium, 'Noto Sans'; font-size: 20.93px; font-weight: 500; } </style></defs><g><path class="cls-1" d="m107.81,13.39c27.08,10.6,46.53,36.65,47.26,67.54.27,11.48-2.82,22.17-2.82,22.17-4.14,13.94-11.74,23.32-16.25,28.11" stroke="#D5F2F6" fill="none" stroke-width="2px"></path><path class="cls-1" d="m23.74,137.66c-5.48-5.7-20.95-23.3-22.07-49.05C.31,57.49,20.45,27.16,52.69,12.11" stroke="#D5F2F6" fill="none" stroke-width="2px"></path><g><text class="cls-3" transform="translate(59.57 17.38) rotate(-11.18)"><tspan x="0" y="0">F</tspan></text><text class="cls-3" transform="translate(70 15.36) rotate(-4.15)"><tspan x="0" y="0">r</tspan></text><text class="cls-3" transform="translate(78.03 14.64) rotate(2.81)"><tspan x="0" y="0">e</tspan></text><text class="cls-3" transform="translate(89.5 15.16) rotate(11.25)"><tspan x="0" y="0">e</tspan></text><text class="cls-3" transform="translate(100.83 17.57) rotate(17.43)"><tspan x="0" y="0"> </tspan></text><text class="cls-3" transform="translate(105.79 19.12) rotate(21.3)"><tspan x="0" y="0"> </tspan></text><text class="cls-3" transform="translate(110.64 21.01) rotate(25.16)"><tspan x="0" y="0"> </tspan></text><text class="cls-3" transform="translate(115.33 23.2) rotate(28.99)"><tspan x="0" y="0"> </tspan></text><text class="cls-3" transform="translate(119.9 25.72) rotate(32.84)"><tspan x="0" y="0"> </tspan></text><text class="cls-3" transform="translate(124.27 28.53) rotate(36.66)"><tspan x="0" y="0"> </tspan></text><text class="cls-3" transform="translate(128.46 31.64) rotate(40.49)"><tspan x="0" y="0"> </tspan></text><text class="cls-3" transform="translate(132.41 35) rotate(44.3)"><tspan x="0" y="0"> </tspan></text><text class="cls-3" transform="translate(136.14 38.64) rotate(48.12)"><tspan x="0" y="0"> </tspan></text><text class="cls-3" transform="translate(139.63 42.52) rotate(51.95)"><tspan x="0" y="0"> </tspan></text><text class="cls-3" transform="translate(142.84 46.6) rotate(55.76)"><tspan x="0" y="0"> </tspan></text><text class="cls-3" transform="translate(145.78 50.9) rotate(59.6)"><tspan x="0" y="0"> </tspan></text><text class="cls-3" transform="translate(148.41 55.38) rotate(63.44)"><tspan x="0" y="0"> </tspan></text><text class="cls-3" transform="translate(150.74 60.02) rotate(67.29)"><tspan x="0" y="0"> </tspan></text><text class="cls-3" transform="translate(152.76 64.83) rotate(71.17)"><tspan x="0" y="0"> </tspan></text><text class="cls-3" transform="translate(154.45 69.75) rotate(75.04)"><tspan x="0" y="0"> </tspan></text><text class="cls-3" transform="translate(155.8 74.76) rotate(78.88)"><tspan x="0" y="0"> </tspan></text><text class="cls-3" transform="translate(156.81 79.86) rotate(82.73)"><tspan x="0" y="0"> </tspan></text><text class="cls-3" transform="translate(13.95 129.59) rotate(54.48)"><tspan x="0" y="0"> </tspan></text><text class="cls-3" transform="translate(17.57 134.6) rotate(49.93)"><tspan x="0" y="0"> </tspan></text><text class="cls-3" transform="translate(21.57 139.31) rotate(45.41)"><tspan x="0" y="0"> </tspan></text><text class="cls-3" transform="translate(26.2 144.4) rotate(36.64)"><tspan x="0" y="0">H</tspan></text><text class="cls-3" transform="translate(40.52 154.62) rotate(24.75)"><tspan x="0" y="0">o</tspan></text><text class="cls-3" transform="translate(54.15 161.06) rotate(10.98)"><tspan x="0" y="0">m</tspan></text><text class="cls-3" transform="translate(75.86 164.55) rotate(-2.22)"><tspan x="0" y="0">e</tspan></text><text class="cls-3" transform="translate(88.93 163.77) rotate(-9.45)"><tspan x="0" y="0"> </tspan></text><text class="cls-3" transform="translate(95.6 162.82) rotate(-17.19)"><tspan x="0" y="0">V</tspan></text><text class="cls-3" transform="translate(108.98 158.34) rotate(-25.01)"><tspan x="0" y="0">i</tspan></text><text class="cls-3" transform="translate(115.15 155.54) rotate(-31.65)"><tspan x="0" y="0">s</tspan></text><text class="cls-3" transform="translate(124.57 149.51) rotate(-38.25)"><tspan x="0" y="0">i</tspan></text><text class="cls-3" transform="translate(129.77 145.42) rotate(-43.95)"><tspan x="0" y="0">t</tspan></text></g></g><g id="Page-1"><g id="_030---Online-Doctor-Home" data-name="030---Online-Doctor-Home"><path id="Shape" class="cls-2" d="m75.63,75.57v-.03c-.08-3.07-1.44-5.98-3.74-8.01-.98-.9-2.11-1.62-3.33-2.15-1.43-1.58-3.47-2.48-5.6-2.48s-4.17.9-5.6,2.48c-1.22.53-2.34,1.25-3.32,2.15-2.31,2.05-3.67,4.96-3.75,8.05v6.49c-2.24.58-3.81,2.6-3.81,4.91s1.57,4.33,3.81,4.91v2c0,1.45.63,2.83,1.71,3.79l3.17,2.77c-.12,1.09-.38,2.16-.76,3.18-2.25.51-8.79,2.17-11.36,4.79-2.04,2.09-2.7,6.64-2.89,10.09-.04.7.21,1.38.69,1.89s1.15.8,1.85.79h40.54c.7,0,1.37-.29,1.85-.79s.73-1.19.69-1.89c-.19-3.45-.85-8-2.9-10.09-2.57-2.62-9.12-4.28-11.37-4.79-.38-1.03-.64-2.1-.76-3.19l3.18-2.77c1.08-.96,1.71-2.34,1.71-3.78v-2c2.24-.58,3.81-2.6,3.81-4.91s-1.57-4.33-3.81-4.91v-6.49Zm-22.81,1.27h5.94c2.54,1.69,5.85,1.69,8.39,0h5.94v2.53h-20.27v-2.53Zm20.13-2.53h-3.42c.67-1.15,1.03-2.47,1.03-3.8,0-.25-.01-.51-.04-.76,1.26,1.24,2.1,2.83,2.43,4.56h0Zm-4.93-3.8c0,2.8-2.27,5.07-5.07,5.07s-5.07-2.27-5.07-5.07,2.27-5.07,5.07-5.07,5.07,2.27,5.07,5.07Zm-12.63-.76c-.02.25-.04.51-.04.76,0,1.34.36,2.65,1.03,3.8h-3.42c.33-1.73,1.17-3.32,2.43-4.56h0Zm13.09,32.63c.16.73.38,1.45.65,2.15l-2.47,1.34c-.67.36-1.14,1-1.28,1.74l-.18.92h-4.52l-.19-.94c-.15-.73-.61-1.37-1.27-1.73l-2.44-1.33c.27-.7.49-1.41.65-2.14.88.69,1.96,1.06,3.07,1.07h4.91c1.12,0,2.2-.38,3.08-1.07h0Zm-3.8,8.68l-1.51,7.6h-.45l-1.54-7.6h3.49Zm-13.13,7.6v-1.27c0-.7-.57-1.27-1.27-1.27s-1.27.57-1.27,1.27v1.27h-6.34c.23-4.21,1.03-7.29,2.18-8.46,1.5-1.52,5.36-2.84,8.21-3.62l-.99,2.09c-.35.7-.36,1.52-.03,2.22l3.68,7.77h-4.18Zm2.81-8.88l1.39-2.92,2.26,1.23,2.13,10.57h-1.61l-4.17-8.88Zm11.4,8.88l2.09-10.57,2.3-1.24,1.4,2.96-4.17,8.85h-1.62Zm15.29-8.46c1.15,1.17,1.94,4.25,2.17,8.46h-6.34v-1.27c0-.7-.57-1.27-1.27-1.27s-1.27.57-1.27,1.27v1.27h-4.17l3.67-7.77c.33-.7.33-1.5-.02-2.2l-1-2.11c2.85.78,6.71,2.09,8.21,3.62h0Zm-4.91-25c.72.72.94,1.81.55,2.76-.39.95-1.31,1.56-2.34,1.57-.7,0-1.27.57-1.27,1.27v3.1c0,.72-.31,1.4-.85,1.88l-5.19,4.53c-.45.4-1.04.62-1.65.62h-4.91c-.61,0-1.19-.22-1.65-.63l-5.17-4.51c-.54-.48-.86-1.17-.86-1.89v-3.1c0-.7-.57-1.27-1.27-1.27-1.4,0-2.53-1.13-2.53-2.53s1.13-2.53,2.53-2.53c.7,0,1.27-.57,1.27-1.27v-1.27h20.27v1.27c0,.7.57,1.27,1.27,1.27.67,0,1.31.27,1.79.74h0Z" fill="#1A808D"></path><circle id="Oval" class="cls-2" cx="62.96" cy="70.51" r="1.27" fill="#1A808D"></circle><path id="Shape-2" data-name="Shape" class="cls-2" d="m112.38,58.47v-9.51c0-1.4-1.13-2.53-2.53-2.53h-5.07c-1.4,0-2.53,1.13-2.53,2.53v1.5l-6-4.74c-.94-.75-2.27-.75-3.21,0l-18.92,14.95c-.9.7-1.25,1.91-.86,2.99.34,1.03,1.3,1.73,2.38,1.76v2.13c0,.7.57,1.27,1.27,1.27s1.27-.57,1.27-1.27v-2.12h32.94v24.07h-10.14v-12.67c0-2.1-1.7-3.8-3.8-3.8h-5.07c-2.1,0-3.8,1.7-3.8,3.8v12.67h-5.93c-.7,0-1.27.57-1.27,1.27s.57,1.27,1.27,1.27h30c.7,0,1.27-.57,1.27-1.27v-25.35c1.09-.03,2.04-.73,2.38-1.76.39-1.08.04-2.28-.86-2.99l-2.79-2.2Zm-21.54,31.04v-12.67c0-.7.57-1.27,1.27-1.27h5.07c.7,0,1.27.57,1.27,1.27v12.67h-7.6Zm13.94-40.54h5.07v7.51l-5.07-4v-3.5Zm-10.14,13.94l-18.99-.07c-.04-.11.01-.15.04-.17l18.99-14.95,18.92,14.95s.07.06-.03.24h-18.92Z" fill="#1A808D"></path></g></g></svg>