<svg xmlns:xlink="http://www.w3.org/1999/xlink" xmlns="http://www.w3.org/2000/svg" id="Layer_1" data-name="Layer 1" viewBox="0 0 155.87 166.35" width="155.87"  height="166.35" ><defs><style> .cls-1 { fill: none; stroke: #d5f2f6; stroke-linecap: round; stroke-miterlimit: 10; stroke-width: 2px; } .cls-2 { fill: #1a808d; } .cls-3 { font-family: NotoSans-Medium, 'Noto Sans'; font-size: 20.93px; font-weight: 500; } </style></defs><g><path class="cls-2" d="m74.47,68.96c9.28,0,16.55-3.89,16.55-8.86-.49-11.73-32.62-11.72-33.11,0,0,4.97,7.27,8.86,16.55,8.86Zm0-14.99c8.15,0,13.83,3.23,13.83,6.14s-5.68,6.14-13.83,6.14-13.83-3.23-13.83-6.14,5.68-6.14,13.83-6.14Z" fill="#1A808D"></path><path class="cls-2" d="m107.99,56c-3.31-4.28-8.52-6.73-15.47-7.29-14.87-6.3-47.88-2.48-48.24,12.33v21.03c.07.85,1.47,10.84,21.68,13.32-4.27,2.88-7.93,5.24-12.73,8.25-.64.41-.82,1.25-.42,1.89.07.11.16.21.26.3l18.64,15.73c.46.39,1.11.43,1.62.1.16-.1,19.93-15.57,24.24-20.06,6.56-6.73,12.18-14.01,13.78-23.32,1.22-6.6,1.62-15.82-3.38-22.28h0Zm-33.53-7.54c15.58.12,31.2,6.42,26.5,15.74-3.16,5.34-14,9.4-26.5,9.4-14.88,0-27.46-5.76-27.46-12.57s12.57-12.57,27.46-12.57Zm-27.46,33.49v-14.48c8.19,9.77,34.86,11.33,47.63,5.02-4.64,4.87-12.3,11.56-24.93,20.33v-7.41c-.01-.75-.63-1.35-1.39-1.33-.73.01-1.32.6-1.33,1.33v7.35c-2.1-.2-4.18-.54-6.24-1.02l.19-7.6c0-.75-.6-1.36-1.35-1.37-.73,0-1.33.57-1.37,1.3l-.17,6.92c-1.75-.55-3.44-1.28-5.03-2.2l.31-8.64c.03-.75-.56-1.38-1.31-1.41-.74-.04-1.37.53-1.41,1.27,0,.01,0,.03,0,.04l-.25,6.85c-1.61-1.26-2.78-2.99-3.36-4.96h0Zm25.69,36.86l-16.43-13.87c2.1-1.32,4.03-2.56,5.85-3.75.3.81.84,1.51,1.53,2.03,1.15.87,2.62,1.2,4.04.9,1.19-.39,2.47.27,2.85,1.46.08.26.12.53.11.81.14,2.72,2.46,4.8,5.17,4.66.26-.01.53-.05.79-.1,1.18-.39,2.46.25,2.85,1.43.09.26.12.54.11.82.03.18.06.38.1.58-3.18,2.43-5.72,4.19-6.96,5.03h0Zm35.99-41.03c-.3,1.62-.73,3.21-1.27,4.76l-1.82-2.55c-.45-.6-1.3-.73-1.9-.29-.59.43-.73,1.26-.31,1.86l2.82,3.96c-.96,2.09-2.13,4.07-3.5,5.92l-4.12-4.8c-.5-.56-1.36-.61-1.92-.11-.55.49-.61,1.32-.15,1.88l4.47,5.22c-1.36,1.7-2.87,3.42-4.51,5.16l-6.65-5.43c-.59-.46-1.45-.36-1.91.23-.45.57-.37,1.4.19,1.87l6.47,5.28c-1.69,1.71-3.53,3.45-5.49,5.2l-6.74-6.25c-.56-.5-1.42-.45-1.92.11-.49.55-.45,1.38.07,1.88l6.53,6.06c-1.64,1.42-3.29,2.79-4.97,4.12-.23-1.09-.85-2.06-1.75-2.72-1.16-.87-2.63-1.2-4.05-.9-.71.21-1.48.07-2.07-.36-.65-.5-.74-.97-.89-1.9-.16-2.73-2.51-4.82-5.24-4.65-.24.01-.48.05-.72.1-1.14.39-2.38-.22-2.77-1.36-.05-.14-.08-.29-.1-.44,2.15-1.42,4.13-2.74,6.16-4.16,21.92-15.17,29.71-24.39,32.61-29.78,2.53-4.11,1.42-8.55-2.11-11.9,8.76,4.23,9.17,16.2,7.54,24h0Z" fill="#1A808D"></path><path class="cls-2" d="m65.39,106.32c-.6-.46-1.45-.35-1.91.25-.44.58-.35,1.4.21,1.87l6.59,5.29c.59.47,1.44.38,1.91-.21.47-.59.38-1.44-.21-1.91h0l-6.59-5.29Z" fill="#1A808D"></path></g><path class="cls-1" d="m107.26,13.73c27.08,10.6,46.53,36.65,47.26,67.54.32,13.76-3.11,26.72-9.37,37.93" stroke="#D5F2F6" fill="none" stroke-width="2px"></path><path class="cls-1" d="m12.5,122.87c-6.98-11.02-11.15-24.02-11.48-38.01C.24,51.3,21.81,22.41,52.13,12.45" stroke="#D5F2F6" fill="none" stroke-width="2px"></path><g><text class="cls-3" transform="translate(59.05 17.72) rotate(-11.16)"><tspan x="0" y="0">F</tspan></text><text class="cls-3" transform="translate(69.45 15.7) rotate(-4.15)"><tspan x="0" y="0">r</tspan></text><text class="cls-3" transform="translate(77.48 14.98) rotate(2.81)"><tspan x="0" y="0">e</tspan></text><text class="cls-3" transform="translate(88.95 15.5) rotate(11.25)"><tspan x="0" y="0">e</tspan></text><text class="cls-3" transform="translate(100.28 17.91) rotate(17.43)"><tspan x="0" y="0"> </tspan></text><text class="cls-3" transform="translate(105.24 19.47) rotate(21.3)"><tspan x="0" y="0"> </tspan></text><text class="cls-3" transform="translate(110.09 21.35) rotate(25.16)"><tspan x="0" y="0"> </tspan></text><text class="cls-3" transform="translate(114.81 23.55) rotate(29.01)"><tspan x="0" y="0"> </tspan></text><text class="cls-3" transform="translate(119.34 26.06) rotate(32.84)"><tspan x="0" y="0"> </tspan></text><text class="cls-3" transform="translate(123.72 28.87) rotate(36.66)"><tspan x="0" y="0"> </tspan></text><text class="cls-3" transform="translate(127.91 31.98) rotate(40.49)"><tspan x="0" y="0"> </tspan></text><text class="cls-3" transform="translate(131.86 35.34) rotate(44.3)"><tspan x="0" y="0"> </tspan></text><text class="cls-3" transform="translate(135.59 38.98) rotate(48.12)"><tspan x="0" y="0"> </tspan></text><text class="cls-3" transform="translate(139.08 42.86) rotate(51.95)"><tspan x="0" y="0"> </tspan></text><text class="cls-3" transform="translate(142.29 46.94) rotate(55.76)"><tspan x="0" y="0"> </tspan></text><text class="cls-3" transform="translate(145.23 51.24) rotate(59.6)"><tspan x="0" y="0"> </tspan></text><text class="cls-3" transform="translate(147.86 55.72) rotate(63.44)"><tspan x="0" y="0"> </tspan></text><text class="cls-3" transform="translate(150.19 60.36) rotate(67.29)"><tspan x="0" y="0"> </tspan></text><text class="cls-3" transform="translate(152.21 65.17) rotate(71.17)"><tspan x="0" y="0"> </tspan></text><text class="cls-3" transform="translate(153.9 70.09) rotate(75.04)"><tspan x="0" y="0"> </tspan></text><text class="cls-3" transform="translate(155.25 75.1) rotate(78.88)"><tspan x="0" y="0"> </tspan></text><text class="cls-3" transform="translate(156.26 80.2) rotate(82.73)"><tspan x="0" y="0"> </tspan></text><text class="cls-3" transform="translate(13.5 131.04) rotate(48.74)"><tspan x="0" y="0">M</tspan></text><text class="cls-3" transform="translate(28.03 146.62) rotate(35.76)"><tspan x="0" y="0">e</tspan></text><text class="cls-3" transform="translate(39.15 154.45) rotate(25.73)"><tspan x="0" y="0">a</tspan></text><text class="cls-3" transform="translate(51.41 160.14) rotate(16.39)"><tspan x="0" y="0">s</tspan></text><text class="cls-3" transform="translate(62.69 163.45) rotate(6.57)"><tspan x="0" y="0">u</tspan></text><text class="cls-3" transform="translate(77.28 164.84) rotate(-2.54)"><tspan x="0" y="0">r</tspan></text><text class="cls-3" transform="translate(87.1 164.45) rotate(-10.89)"><tspan x="0" y="0">e</tspan></text><text class="cls-3" transform="translate(101.1 161.96) rotate(-24.31)"><tspan x="0" y="0">m</tspan></text><text class="cls-3" transform="translate(120.87 152.24) rotate(-37.65)"><tspan x="0" y="0">e</tspan></text><text class="cls-3" transform="translate(131.62 143.82) rotate(-48.1)"><tspan x="0" y="0">n</tspan></text><text class="cls-3" transform="translate(141.14 132.75) rotate(-56.93)"><tspan x="0" y="0">t</tspan></text></g></svg>