<svg xmlns:xlink="http://www.w3.org/1999/xlink" xmlns="http://www.w3.org/2000/svg" id="Layer_1" data-name="Layer 1" viewBox="0 0 156.34 170.13" width="156.34"  height="170.13" ><defs><style> .cls-1 { fill: none; stroke: #d5f2f6; stroke-linecap: round; stroke-miterlimit: 10; stroke-width: 2px; } .cls-2 { fill: #1a808d; } .cls-3 { font-family: NotoSans-Medium, 'Noto Sans'; font-size: 20.93px; font-weight: 500; } </style></defs><g><path class="cls-1" d="m107.81,13.39c27.08,10.6,46.53,36.65,47.26,67.54.27,11.48-2.82,22.17-2.82,22.17-1.33,4.89-3.62,10.96-7.73,17.18-1.35,2.05-2.75,3.87-4.12,5.5" stroke="#D5F2F6" fill="none" stroke-width="2px"></path><path class="cls-1" d="m17.28,127.47c-5.73-7.25-14.48-20.79-15.61-38.86C-.21,58.44,19.96,28.29,52.69,12.11" stroke="#D5F2F6" fill="none" stroke-width="2px"></path><g><text class="cls-3" transform="translate(59.57 17.38) rotate(-11.18)"><tspan x="0" y="0">F</tspan></text><text class="cls-3" transform="translate(70 15.36) rotate(-4.15)"><tspan x="0" y="0">r</tspan></text><text class="cls-3" transform="translate(78.03 14.64) rotate(2.81)"><tspan x="0" y="0">e</tspan></text><text class="cls-3" transform="translate(89.5 15.16) rotate(11.25)"><tspan x="0" y="0">e</tspan></text><text class="cls-3" transform="translate(100.83 17.57) rotate(17.43)"><tspan x="0" y="0"> </tspan></text><text class="cls-3" transform="translate(105.8 19.12) rotate(21.3)"><tspan x="0" y="0"> </tspan></text><text class="cls-3" transform="translate(110.64 21.01) rotate(25.16)"><tspan x="0" y="0"> </tspan></text><text class="cls-3" transform="translate(115.33 23.2) rotate(28.99)"><tspan x="0" y="0"> </tspan></text><text class="cls-3" transform="translate(119.9 25.72) rotate(32.84)"><tspan x="0" y="0"> </tspan></text><text class="cls-3" transform="translate(124.27 28.53) rotate(36.66)"><tspan x="0" y="0"> </tspan></text><text class="cls-3" transform="translate(128.46 31.64) rotate(40.49)"><tspan x="0" y="0"> </tspan></text><text class="cls-3" transform="translate(132.41 35) rotate(44.3)"><tspan x="0" y="0"> </tspan></text><text class="cls-3" transform="translate(136.14 38.64) rotate(48.12)"><tspan x="0" y="0"> </tspan></text><text class="cls-3" transform="translate(139.63 42.52) rotate(51.95)"><tspan x="0" y="0"> </tspan></text><text class="cls-3" transform="translate(142.84 46.6) rotate(55.76)"><tspan x="0" y="0"> </tspan></text><text class="cls-3" transform="translate(145.78 50.9) rotate(59.6)"><tspan x="0" y="0"> </tspan></text><text class="cls-3" transform="translate(148.41 55.38) rotate(63.44)"><tspan x="0" y="0"> </tspan></text><text class="cls-3" transform="translate(150.74 60.02) rotate(67.29)"><tspan x="0" y="0"> </tspan></text><text class="cls-3" transform="translate(152.76 64.83) rotate(71.17)"><tspan x="0" y="0"> </tspan></text><text class="cls-3" transform="translate(154.45 69.75) rotate(75.04)"><tspan x="0" y="0"> </tspan></text><text class="cls-3" transform="translate(155.8 74.76) rotate(78.88)"><tspan x="0" y="0"> </tspan></text><text class="cls-3" transform="translate(156.81 79.86) rotate(82.73)"><tspan x="0" y="0"> </tspan></text><text class="cls-3" transform="translate(17.43 133.8) rotate(47.03)"><tspan x="0" y="0">C</tspan></text><text class="cls-3" transform="translate(27.78 144.64) rotate(36.23)"><tspan x="0" y="0">o</tspan></text><text class="cls-3" transform="translate(39.6 153.11) rotate(25.36)"><tspan x="0" y="0">n</tspan></text><text class="cls-3" transform="translate(53.04 159.19) rotate(15.54)"><tspan x="0" y="0">s</tspan></text><text class="cls-3" transform="translate(64.37 162.33) rotate(5.73)"><tspan x="0" y="0">u</tspan></text><text class="cls-3" transform="translate(78.74 163.43) rotate(-2.04)"><tspan x="0" y="0">l</tspan></text><text class="cls-3" transform="translate(85.36 163.21) rotate(-7.74)"><tspan x="0" y="0">t</tspan></text><text class="cls-3" transform="translate(94.66 161.99) rotate(-16.17)"><tspan x="0" y="0">a</tspan></text><text class="cls-3" transform="translate(107.43 158.03) rotate(-24.61)"><tspan x="0" y="0">t</tspan></text><text class="cls-3" transform="translate(115.52 154.21) rotate(-30.37)"><tspan x="0" y="0">i</tspan></text><text class="cls-3" transform="translate(121.6 150.82) rotate(-38.08)"><tspan x="0" y="0">o</tspan></text><text class="cls-3" transform="translate(132.91 141.77) rotate(-48.84)"><tspan x="0" y="0">n</tspan></text></g></g><g><path class="cls-2" d="m59.28,57.59c0-5.02-4.07-9.09-9.09-9.09-5.02,0-9.09,4.07-9.09,9.09s4.07,9.09,9.09,9.09h0c5.01,0,9.08-4.07,9.08-9.09Zm-15.87,0c0-3.75,3.04-6.79,6.79-6.79s6.79,3.04,6.79,6.79c0,3.75-3.04,6.79-6.79,6.79-3.75,0-6.79-3.04-6.79-6.79Z" fill="#1A808D"></path><path class="cls-2" d="m66.94,89.39h-10.67v-15.59c.03-3.36-2.66-6.11-6.02-6.14s-6.11,2.66-6.14,6.02c0,.04,0,.08,0,.13v21.67c0,3.36,2.73,6.08,6.08,6.08h10.66v15.59c0,3.36,2.72,6.08,6.08,6.08s6.08-2.72,6.08-6.08h0v-21.68c0-3.36-2.72-6.08-6.08-6.08h0Zm3.78,27.76c0,2.09-1.69,3.78-3.78,3.78-2.09,0-3.78-1.69-3.78-3.78v-16.74c0-.63-.51-1.15-1.15-1.15h-11.81c-2.09,0-3.78-1.69-3.78-3.78v-21.67c-.03-2.09,1.64-3.8,3.73-3.83,2.09-.03,3.8,1.64,3.83,3.73,0,.03,0,.07,0,.1v16.74c0,.63.51,1.15,1.15,1.15h11.81c2.09,0,3.78,1.69,3.78,3.78v21.67Z" fill="#1A808D"></path><path class="cls-2" d="m110.08,48.4c-5.02,0-9.09,4.07-9.09,9.09s4.07,9.09,9.09,9.09,9.09-4.07,9.09-9.09c0,0,0,0,0,0,0-5.02-4.07-9.08-9.09-9.09Zm0,15.88c-3.75,0-6.79-3.04-6.79-6.79s3.04-6.79,6.79-6.79c3.75,0,6.79,3.04,6.79,6.79h0c0,3.75-3.04,6.78-6.79,6.79Z" fill="#1A808D"></path><path class="cls-2" d="m110.08,67.72c-3.36,0-6.08,2.72-6.08,6.08v15.59h-10.66c-3.36,0-6.08,2.72-6.08,6.08v21.68c0,3.36,2.72,6.08,6.08,6.08s6.08-2.72,6.08-6.08v-15.59h10.66c3.36,0,6.08-2.72,6.08-6.08v-21.67c0-3.36-2.72-6.08-6.08-6.08h0Zm3.78,27.76c0,2.09-1.69,3.78-3.78,3.78h-11.81c-.63,0-1.15.51-1.15,1.15v16.74c0,2.09-1.69,3.78-3.78,3.78s-3.78-1.69-3.78-3.78v-21.67c0-2.09,1.69-3.78,3.78-3.78h11.81c.63,0,1.15-.51,1.15-1.15v-16.74c-.03-2.09,1.64-3.8,3.73-3.83s3.8,1.64,3.83,3.73c0,.03,0,.07,0,.1v21.67Z" fill="#1A808D"></path><path class="cls-2" d="m62.97,83.85h34.34c.63,0,1.15-.51,1.15-1.15v-6c0-.63-.51-1.15-1.15-1.15h-34.34c-.63,0-1.15.51-1.15,1.15v6c0,.63.51,1.15,1.15,1.15h0Zm1.15-6h32.04v3.7h-32.04v-3.7Z" fill="#1A808D"></path><path class="cls-2" d="m62.97,65.68h7.3v3.19c0,.63.51,1.15,1.15,1.15h22.07c.63,0,1.15-.51,1.15-1.15v-13.7l3.51-3.73c.43-.46.41-1.19-.05-1.62-.21-.2-.49-.31-.79-.31h-7.3v-3.19c0-.63-.51-1.15-1.15-1.15h-22.07c-.63,0-1.15.51-1.15,1.15v13.7l-3.5,3.73c-.44.46-.41,1.19.05,1.62.21.2.5.31.79.31h0Zm27.04-1.15v-12.73h4.64l-2,2.13c-.2.21-.31.5-.31.79v13h-19.77v-2.04h16.29c.63,0,1.15-.51,1.15-1.15h0s0,0,0,0Zm-22.38-3.28c.2-.21.31-.5.31-.79v-13h19.77v15.92h-22.08l2-2.13Z" fill="#1A808D"></path><path class="cls-2" d="m83.38,56.96h-11.11c-.63,0-1.15.51-1.15,1.15s.51,1.15,1.15,1.15h11.11c.63,0,1.15-.51,1.15-1.15s-.51-1.15-1.15-1.15Z" fill="#1A808D"></path><path class="cls-2" d="m83.38,51.59h-11.11c-.63,0-1.15.51-1.15,1.15s.51,1.15,1.15,1.15h11.11c.63,0,1.15-.51,1.15-1.15s-.51-1.15-1.15-1.15Z" fill="#1A808D"></path></g></svg>