<svg xmlns:xlink="http://www.w3.org/1999/xlink" xmlns="http://www.w3.org/2000/svg" id="Layer_1" data-name="Layer 1" viewBox="0 0 156.34 166.92" width="156.34"  height="166.92" ><defs><style> .cls-1 { fill: none; stroke: #d5f2f6; stroke-linecap: round; stroke-miterlimit: 10; stroke-width: 2px; } .cls-2 { fill: #1a808d; } .cls-3 { font-family: NotoSans-Medium, 'Noto Sans'; font-size: 20.93px; font-weight: 500; } </style></defs><g><path class="cls-1" d="m113.09,16.73c6.67,3.21,16.83,9.27,25.67,20.23,0,0,16.14,20,16.3,44.76.07,10.6-2.82,22.17-2.82,22.17,0,0,0,0,0,0-1.44,4.76-3.79,10.79-7.73,17.18-2.68,4.34-5.5,7.89-8.06,10.72" stroke="#D5F2F6" fill="none" stroke-width="2px"></path><path class="cls-1" d="m24.15,132.89c-5.24-4.88-20.19-20.11-22.48-43.48C-1.09,61.27,15.62,32.8,44.02,17.56" stroke="#D5F2F6" fill="none" stroke-width="2px"></path><g><text class="cls-3" transform="translate(52.41 21.26) rotate(-14.72)"><tspan x="0" y="0">Q</tspan></text><text class="cls-3" transform="translate(67.71 17.34) rotate(-4.26)"><tspan x="0" y="0">u</tspan></text><text class="cls-3" transform="translate(80.48 16.58) rotate(2.31)"><tspan x="0" y="0">i</tspan></text><text class="cls-3" transform="translate(85.82 16.66) rotate(7.9)"><tspan x="0" y="0">c</tspan></text><text class="cls-3" transform="translate(95.53 17.93) rotate(15.68)"><tspan x="0" y="0">k</tspan></text><text class="cls-3" transform="translate(22.92 140.6) rotate(43.21)"><tspan x="0" y="0">I</tspan></text><text class="cls-3" transform="translate(29.28 146.72) rotate(34.62)"><tspan x="0" y="0">n</tspan></text><text class="cls-3" transform="translate(41.58 154.89) rotate(24.85)"><tspan x="0" y="0">s</tspan></text><text class="cls-3" transform="translate(51.94 159.52) rotate(17.21)"><tspan x="0" y="0">t</tspan></text><text class="cls-3" transform="translate(60.92 162.35) rotate(8.75)"><tspan x="0" y="0">a</tspan></text><text class="cls-3" transform="translate(73.95 164.08) rotate(1.43)"><tspan x="0" y="0">l</tspan></text><text class="cls-3" transform="translate(80.42 164.21) rotate(-3.26)"><tspan x="0" y="0">l</tspan></text><text class="cls-3" transform="translate(87.33 163.94) rotate(-10.67)"><tspan x="0" y="0">a</tspan></text><text class="cls-3" transform="translate(100.42 161.22) rotate(-19.12)"><tspan x="0" y="0">t</tspan></text><text class="cls-3" transform="translate(108.84 158.19) rotate(-24.9)"><tspan x="0" y="0">i</tspan></text><text class="cls-3" transform="translate(115.2 155.41) rotate(-32.62)"><tspan x="0" y="0">o</tspan></text><text class="cls-3" transform="translate(127.34 147.46) rotate(-43.42)"><tspan x="0" y="0">n</tspan></text></g></g><path class="cls-2" d="m38.24,48.71h2.77v71.59c0,.51.41.92.92.92.26,0,.51-.11.68-.3,1.9-2.12,3.51-3.12,4.53-2.84.5.13.79.54,1.23,1.18.48.87,1.27,1.54,2.22,1.87.03.02.07.03.1.04.04.01.07.03.11.04s.12,0,.18.02c.13.02.27.03.4.04,1.03-.09,2-.51,2.77-1.2.59-.6,1.39-.93,2.23-.92.53.11,1,.41,1.32.85.56.73,1.41,1.18,2.33,1.23h.05c1.23-.12,2.35-.78,3.04-1.81.64-.72,1.05-1.16,1.59-1.16.5,0,.84.39,1.4,1.07.62.91,1.55,1.56,2.61,1.83.01,0,.03,0,.04.01.09.01.15.05.24.06.01,0,.03,0,.04,0h.03s.04-.01.07-.01c1.17-.03,2.28-.53,3.09-1.38.77-.65,1.28-1.05,1.98-.97.55.05.84.34,1.34.89.61.81,1.52,1.34,2.52,1.47h.08s.04-.01.06-.01c1.2-.03,2.33-.53,3.17-1.39.77-.65,1.28-1.04,1.98-.97.55.05.83.34,1.32.9.58.81,1.47,1.34,2.46,1.47h.08s.07,0,.1,0c1.27-.08,2.45-.66,3.3-1.61.71-.65,1.34-1.23,2.08-1.19.42.01.68.33,1.17,1.06.43.81,1.17,1.42,2.05,1.68.03.01.07.02.11.03.07.01.13.05.21.05h.05s.02,0,.03,0c1.28-.15,2.4-.91,3.02-2.03.55-.71,1.08-1.39,1.62-1.39.47,0,.86.5,1.45,1.32.56,1,1.49,1.73,2.59,2.03.06.02.12.03.17.04.06,0,.11.04.17.04h.02s.07-.01.1-.02c1.16-.17,2.19-.85,2.82-1.84.56-.68,1.1-1.33,1.78-1.4.95-.1,2.24.92,3.6,2.87.29.42.86.52,1.27.23.25-.17.39-.45.39-.75V48.71h2.77c.51,0,.92-.41.92-.92v-3.68c0-.51-.41-.92-.92-.92H38.24c-.51,0-.92.41-.92.92v3.68c0,.51.41.92.92.92h0Zm9.37,67.6c-.28-.08-.57-.12-.86-.12-1.49.14-2.88.82-3.91,1.9V48.71h7.22v69.77c-.06-.08-.12-.16-.18-.26-.48-.9-1.29-1.59-2.26-1.91h0Zm9.03,1.02c-1.32-.11-2.62.35-3.58,1.26-.36.29-.75.54-1.17.73V48.71h7.24v70.11l-.11-.11c-.6-.73-1.45-1.23-2.38-1.39h0Zm10.89.83c-.6-.99-1.64-1.63-2.79-1.74h-.03c-1.2.12-2.29.77-2.96,1.77-.24.29-.51.55-.79.8V48.71h7.22v70.16c-.23-.23-.44-.47-.64-.72h0Zm6.88-1.13c-1.26-.04-2.48.47-3.34,1.4-.33.29-.68.55-1.06.77V48.71h7.24v70.11c-.11-.11-.2-.18-.33-.32-.6-.81-1.51-1.34-2.51-1.47h0Zm9.14,0c-1.26-.03-2.47.47-3.33,1.39-.34.31-.73.58-1.14.8V48.71h7.24v70.07c-.09-.09-.16-.15-.26-.26-.6-.82-1.5-1.37-2.51-1.5h0Zm9.21-.46c-1.31.05-2.54.66-3.37,1.67-.37.37-.79.69-1.24.96V48.71h7.22v69.7c-.5-1.02-1.48-1.71-2.61-1.84h0Zm8.22-.61h-.03c-1.3.18-2.43.95-3.07,2.09-.22.28-.45.56-.69.82V48.71h7.24v70.04c-.17-.2-.35-.43-.55-.71-.57-1.13-1.66-1.9-2.9-2.08h0Zm12.51,1.78c-.89-1.07-2.23-1.67-3.63-1.62-1.23.25-2.31.99-2.99,2.06-.22.27-.41.49-.59.67V48.71h7.22v69.03ZM39.16,45.03h78.02v1.85H39.16v-1.85Z" fill="#1A808D"></path></svg>