<svg xmlns:xlink="http://www.w3.org/1999/xlink" xmlns="http://www.w3.org/2000/svg" id="Layer_1" data-name="Layer 1" viewBox="0 0 156.34 166.92" width="156.34"  height="166.92" ><defs><style> .cls-1 { fill: none; stroke: #d5f2f6; stroke-linecap: round; stroke-miterlimit: 10; stroke-width: 2px; } .cls-2 { fill: #1a808d; } .cls-3 { font-family: NotoSans-Medium, 'Noto Sans'; font-size: 20.93px; font-weight: 500; } </style></defs><g><path class="cls-1" d="m108.65,14.84c4.37,1.78,9.74,4.41,15.41,8.34,6.21,4.31,10.88,8.85,14.21,12.59,5.23,6.82,16.24,23.2,16.81,45.95.22,8.8-1.18,16.35-2.82,22.17,0,0,0,0,0,0-.75,3.2-2,7.12-4.16,11.3-1.16,2.24-2.38,4.2-3.57,5.88" stroke="#D5F2F6" fill="none" stroke-width="2px"></path><path class="cls-1" d="m11.41,115.6c-6.87-10.7-8.99-20.34-9.75-26.2C-2.9,53.75,26.59,28.93,28.04,27.74c9.05-7.37,18.15-10.94,23.86-12.72" stroke="#D5F2F6" fill="none" stroke-width="2px"></path><g><text class="cls-3" transform="translate(58.99 19.23) rotate(-10.62)"><tspan x="0" y="0">B</tspan></text><text class="cls-3" transform="translate(71.93 16.83) rotate(-1.61)"><tspan x="0" y="0">e</tspan></text><text class="cls-3" transform="translate(83.43 16.53) rotate(6.09)"><tspan x="0" y="0">s</tspan></text><text class="cls-3" transform="translate(93.11 17.6) rotate(12.51)"><tspan x="0" y="0">t</tspan></text><text class="cls-3" transform="translate(10.23 123.63) rotate(56.65)"><tspan x="0" y="0">C</tspan></text><text class="cls-3" transform="translate(18.64 136.1) rotate(45.64)"><tspan x="0" y="0">u</tspan></text><text class="cls-3" transform="translate(29.15 146.47) rotate(35.93)"><tspan x="0" y="0">s</tspan></text><text class="cls-3" transform="translate(38.44 153.01) rotate(28.34)"><tspan x="0" y="0">t</tspan></text><text class="cls-3" transform="translate(46.71 157.55) rotate(19.6)"><tspan x="0" y="0">o</tspan></text><text class="cls-3" transform="translate(60.83 162.74) rotate(5.89)"><tspan x="0" y="0">m</tspan></text><text class="cls-3" transform="translate(82.34 164.14) rotate(-4.67)"><tspan x="0" y="0">i</tspan></text><text class="cls-3" transform="translate(89.07 163.66) rotate(-11.21)"><tspan x="0" y="0">z</tspan></text><text class="cls-3" transform="translate(100.29 161.4) rotate(-20.46)"><tspan x="0" y="0">a</tspan></text><text class="cls-3" transform="translate(112.74 156.48) rotate(-28.9)"><tspan x="0" y="0">t</tspan></text><text class="cls-3" transform="translate(120.49 152.08) rotate(-34.62)"><tspan x="0" y="0">i</tspan></text><text class="cls-3" transform="translate(126.31 148.25) rotate(-42.31)"><tspan x="0" y="0">o</tspan></text><text class="cls-3" transform="translate(136.93 138.39) rotate(-53.08)"><tspan x="0" y="0">n</tspan></text></g></g><path class="cls-2" d="m115.57,44.43H40.76c-.9,0-1.63.73-1.63,1.63v6.51c0,.9.73,1.63,1.63,1.63h1.63v66.68c0,.9.73,1.63,1.63,1.63,2.16,0,3.27-1.26,4.07-2.18.71-.81.99-1.07,1.63-1.07s.92.26,1.63,1.07c.81.92,1.91,2.18,4.07,2.18s3.31-1.31,4.07-2.18c.71-.81.99-1.07,1.62-1.07s.91.26,1.62,1.07c.76.87,1.9,2.18,4.06,2.18.56,0,1.09-.29,1.38-.77s.32-1.08.07-1.58l-12.38-24.77c5.94-4.4,10.05-10.99,11.37-18.28l4.16-22.9h13.55l4.16,22.9c1.32,7.29,5.44,13.87,11.37,18.28l-12.39,24.71c-.15.29-.2.68-.15,1.01.11.8.8,1.4,1.61,1.4,2.16,0,3.27-1.26,4.07-2.18.71-.81.99-1.07,1.63-1.07s.92.26,1.63,1.07c.81.92,1.91,2.18,4.07,2.18s3.31-1.31,4.07-2.18c.71-.81.99-1.07,1.62-1.07s.91.26,1.62,1.07c.76.87,1.9,2.18,4.06,2.18.9,0,1.63-.73,1.63-1.63V54.19h1.63c.9,0,1.63-.73,1.63-1.63v-6.51c0-.9-.73-1.63-1.63-1.63Zm-52.92,71.81c-.45-.16-.96-.26-1.55-.26-2.16,0-3.31,1.31-4.07,2.18-.71.81-.99,1.07-1.62,1.07s-.92-.26-1.63-1.07c-.81-.92-1.91-2.18-4.07-2.18s-3.27,1.26-4.07,2.18v-22.87c2.21.86,5.08,1.11,7.12,1.16l9.89,19.79Zm1.38-39.73c-1.23,6.74-5.15,12.79-10.77,16.69-3.86-.08-7.28-.93-7.62-1.61v-37.41h22.45l-4.06,22.32Zm46.66,41.64c-.76-.87-1.9-2.17-4.05-2.17s-3.31,1.31-4.07,2.18c-.71.81-.99,1.07-1.62,1.07s-.92-.26-1.63-1.07c-.81-.92-1.91-2.18-4.07-2.18-.61,0-1.15.1-1.61.27l9.93-19.8c2.04-.05,4.91-.3,7.12-1.16v22.86h0Zm0-26.59c-.36.72-3.77,1.56-7.62,1.64-5.62-3.91-9.55-9.95-10.77-16.69l-4.06-22.32h22.45v37.38Zm3.25-40.63H42.39v-3.25h71.56v3.25h0Z" fill="#1A808D"></path></svg>