<svg xmlns:xlink="http://www.w3.org/1999/xlink" xmlns="http://www.w3.org/2000/svg" id="Layer_1" data-name="Layer 1" viewBox="0 0 156.34 170.13" width="156.34"  height="170.13" ><defs><style> .cls-1 { fill: none; stroke: #d5f2f6; stroke-linecap: round; stroke-miterlimit: 10; stroke-width: 2px; } .cls-2 { fill: #1a808d; } .cls-3 { font-family: NotoSans-Medium, 'Noto Sans'; font-size: 20.93px; font-weight: 500; } </style></defs><g><path class="cls-1" d="m107.81,13.39c27.08,10.6,46.53,36.65,47.26,67.54.27,11.48-2.82,22.17-2.82,22.17-1.65,4.95-4.08,10.87-7.73,17.18-4.52,7.82-9.49,13.81-13.67,18.14" stroke="#D5F2F6" fill="none" stroke-width="2px"></path><path class="cls-1" d="m31.84,142.67c-4.25-3.3-28.08-22.4-30.17-54.06C-.42,57.09,19.9,26.03,52.69,12.11" stroke="#D5F2F6" fill="none" stroke-width="2px"></path><g><text class="cls-3" transform="translate(59.57 17.38) rotate(-11.18)"><tspan x="0" y="0">F</tspan></text><text class="cls-3" transform="translate(70 15.36) rotate(-4.15)"><tspan x="0" y="0">r</tspan></text><text class="cls-3" transform="translate(78.03 14.64) rotate(2.81)"><tspan x="0" y="0">e</tspan></text><text class="cls-3" transform="translate(89.5 15.16) rotate(11.25)"><tspan x="0" y="0">e</tspan></text><text class="cls-3" transform="translate(100.83 17.57) rotate(17.43)"><tspan x="0" y="0"> </tspan></text><text class="cls-3" transform="translate(105.79 19.12) rotate(21.3)"><tspan x="0" y="0"> </tspan></text><text class="cls-3" transform="translate(110.64 21.01) rotate(25.16)"><tspan x="0" y="0"> </tspan></text><text class="cls-3" transform="translate(115.33 23.2) rotate(28.99)"><tspan x="0" y="0"> </tspan></text><text class="cls-3" transform="translate(119.9 25.72) rotate(32.84)"><tspan x="0" y="0"> </tspan></text><text class="cls-3" transform="translate(124.27 28.53) rotate(36.66)"><tspan x="0" y="0"> </tspan></text><text class="cls-3" transform="translate(128.46 31.64) rotate(40.49)"><tspan x="0" y="0"> </tspan></text><text class="cls-3" transform="translate(132.41 35) rotate(44.3)"><tspan x="0" y="0"> </tspan></text><text class="cls-3" transform="translate(136.14 38.64) rotate(48.12)"><tspan x="0" y="0"> </tspan></text><text class="cls-3" transform="translate(139.63 42.52) rotate(51.95)"><tspan x="0" y="0"> </tspan></text><text class="cls-3" transform="translate(142.84 46.6) rotate(55.76)"><tspan x="0" y="0"> </tspan></text><text class="cls-3" transform="translate(145.78 50.9) rotate(59.6)"><tspan x="0" y="0"> </tspan></text><text class="cls-3" transform="translate(148.41 55.38) rotate(63.44)"><tspan x="0" y="0"> </tspan></text><text class="cls-3" transform="translate(150.74 60.02) rotate(67.29)"><tspan x="0" y="0"> </tspan></text><text class="cls-3" transform="translate(152.76 64.83) rotate(71.17)"><tspan x="0" y="0"> </tspan></text><text class="cls-3" transform="translate(154.45 69.75) rotate(75.04)"><tspan x="0" y="0"> </tspan></text><text class="cls-3" transform="translate(155.8 74.76) rotate(78.88)"><tspan x="0" y="0"> </tspan></text><text class="cls-3" transform="translate(156.81 79.86) rotate(82.73)"><tspan x="0" y="0"> </tspan></text><text class="cls-3" transform="translate(33.12 148.81) rotate(31.71)"><tspan x="0" y="0">S</tspan></text><text class="cls-3" transform="translate(44.34 155.61) rotate(21.83)"><tspan x="0" y="0">a</tspan></text><text class="cls-3" transform="translate(57.51 161.09) rotate(8.39)"><tspan x="0" y="0">m</tspan></text><text class="cls-3" transform="translate(79.42 163.64) rotate(-5.19)"><tspan x="0" y="0">p</tspan></text><text class="cls-3" transform="translate(93.56 162.02) rotate(-13.02)"><tspan x="0" y="0">l</tspan></text><text class="cls-3" transform="translate(99.86 160.53) rotate(-17.83)"><tspan x="0" y="0">i</tspan></text><text class="cls-3" transform="translate(106.58 158.55) rotate(-25.79)"><tspan x="0" y="0">n</tspan></text><text class="cls-3" transform="translate(119.98 151.87) rotate(-36.75)"><tspan x="0" y="0">g</tspan></text></g></g><g><path class="cls-2" d="m116.33,91.72c0-.3-.12-.59-.33-.8l-2.22-2.18,2.22-2.18c.21-.21.33-.5.33-.8s-.12-.59-.33-.8l-2.25-2.21,2.26-2.41c.42-.45.4-1.14-.04-1.57l-6.59-6.38c-.44-.43-1.15-.42-1.58.02l-2.18,2.22-2.18-2.22s-.03-.03-.05-.04c0,0,0,0-.01-.01l-2.25-2.21,2.26-2.41c.42-.45.4-1.14-.04-1.57l-6.59-6.38c-.44-.43-1.14-.42-1.58.02l-2.18,2.22-2.18-2.22s-.03-.03-.05-.04c0,0,0,0-.01-.01l-2.25-2.21,2.26-2.41c.42-.45.4-1.14-.04-1.57l-5.53-5.36s0,0,0,0l-1.04-1.01c-.44-.43-1.14-.42-1.58.02l-2.18,2.22-2.18-2.22c-.21-.21-.5-.33-.8-.33s-.59.12-.8.33l-2.18,2.22-2.18-2.22c-.21-.21-.5-.33-.8-.33s-.59.12-.8.33l-2.18,2.22-2.18-2.22c-.21-.21-.5-.33-.8-.33s-.59.12-.8.33l-2.18,2.22-2.18-2.22c-.21-.21-.5-.33-.8-.33s-.59.12-.8.33l-2.18,2.22-2.18-2.22c-.21-.21-.5-.33-.8-.33s-.59.12-.8.33l-2.18,2.22-2.18-2.22c-.21-.21-.49-.33-.79-.33-.3,0-.58.12-.8.33l-6.61,6.61c-.21.21-.33.5-.33.8s.12.58.33.79l2.22,2.18-2.22,2.18c-.21.21-.33.5-.33.8s.12.59.33.8l2.22,2.18-2.22,2.18c-.21.21-.33.5-.33.8s.12.59.33.8l2.22,2.18-2.22,2.18c-.21.21-.33.5-.33.8s.12.59.33.8l2.22,2.18-2.22,2.18c-.21.21-.33.5-.33.8s.12.59.33.8l2.22,2.18-2.22,2.18c-.21.21-.33.5-.33.8s.12.59.33.8l2.22,2.18-2.22,2.18c-.21.21-.33.49-.33.79,0,.3.12.58.33.8l6.61,6.61c.21.21.49.33.79.33h0c.3,0,.58-.12.79-.33l2.18-2.22c1.1,1.14,3.3,3.34,4.45,4.45l-2.22,2.18c-.21.21-.33.49-.33.79,0,.3.12.58.33.8l6.61,6.61c.21.21.49.33.79.33h0c.3,0,.58-.12.79-.33l2.18-2.22c1.1,1.14,3.3,3.34,4.45,4.45l-2.22,2.18c-.21.21-.33.49-.33.79,0,.3.12.58.33.8l6.61,6.61c.21.21.49.33.79.33h0c.3,0,.58-.12.79-.33l2.18-2.22,2.18,2.22c.21.21.5.33.8.33s.59-.12.8-.33l2.18-2.22,2.18,2.22c.21.21.5.33.8.33s.59-.12.8-.33l2.18-2.22,2.18,2.22c.21.21.5.33.8.33s.59-.12.8-.33l2.18-2.22,2.18,2.22c.21.21.5.33.8.33s.59-.12.8-.33l2.18-2.22,2.18,2.22c.21.21.5.33.8.33s.59-.12.8-.33l2.18-2.22,2.18,2.22c.21.21.49.33.79.33.3,0,.58-.12.8-.33l6.61-6.61c.21-.21.33-.5.33-.8,0-.3-.12-.58-.33-.79l-2.22-2.18,2.22-2.18c.21-.21.33-.5.33-.8s-.12-.59-.33-.8l-2.22-2.18,2.22-2.18c.21-.21.33-.5.33-.8s-.12-.59-.33-.8l-2.22-2.18,2.22-2.18c.21-.21.33-.5.33-.8s-.12-.59-.33-.8l-2.22-2.18,2.22-2.18c.21-.21.33-.5.33-.8h0Zm-38.87-42.1l2.18,2.22c.21.21.5.33.8.33s.59-.12.8-.33l2.2-2.24c.14.26.33.72.33,1.48,0,2.26-1.84,4.1-4.1,4.1-2.11,0-3.85-1.6-4.07-3.64l1.88-1.92Zm-32.53,7.19l-2.08-2.04c.59-.31,1.24-.48,1.93-.48,2.26,0,4.1,1.84,4.1,4.1.02,2.22-1.93,4.18-4.23,4.09l-1.94-1.9,2.22-2.18c.21-.21.33-.5.33-.8s-.12-.59-.33-.8Zm8,11.22l2.22,2.18-2.22,2.18c-.21.21-.33.5-.33.8s.12.59.33.8l1.8,1.77c-.43-.09-.87-.14-1.32-.14-2.5,0-4.77,1.48-5.79,3.76-.25.56,0,1.23.57,1.48.15.07.3.1.45.1.43,0,.84-.25,1.02-.66.66-1.48,2.13-2.44,3.75-2.44,0,0,0,0,0,0l-.49.48c-.21.21-.33.5-.33.8s.12.59.33.8l2.22,2.18-2.22,2.18c-.21.21-.33.5-.33.8s.12.59.33.8l.16.16c-1.25-.1-2.38-.76-3.09-1.81-.34-.51-1.04-.65-1.55-.31-.51.34-.65,1.04-.31,1.55,1.18,1.76,3.15,2.82,5.27,2.82.59,0,1.17-.08,1.72-.24h0s-2.22,2.18-2.22,2.18c-.21.21-.33.5-.33.8s.12.59.33.8l2.22,2.18-1.42,1.39-2.23-2.27c-.21-.21-.5-.33-.8-.33s-.59.12-.8.33l-2.18,2.22-5.01-5.01,2.22-2.18c.21-.21.33-.5.33-.8s-.12-.59-.33-.8l-2.22-2.18,2.22-2.18c.21-.21.33-.5.33-.8s-.12-.59-.33-.8l-2.22-2.18,2.22-2.18c.21-.21.33-.5.33-.8s-.12-.59-.33-.8l-2.22-2.18,2.22-2.18c.21-.21.33-.5.33-.8s-.12-.59-.33-.8l-2.22-2.18,1.84-1.81c3.5.16,6.57-2.77,6.56-6.33,0-3.33-2.58-6.07-5.85-6.32l2.46-2.46,2.18,2.22c.21.21.5.33.8.33s.59-.12.8-.33l2.18-2.22,2.18,2.22c.21.21.5.33.8.33s.59-.12.8-.33l2.18-2.22,2.18,2.22c.21.21.5.33.8.33s.59-.12.8-.33l2.18-2.22,2.18,2.22c.21.21.5.33.8.33s.59-.12.8-.33l2.18-2.22,1.82,1.85c.2,3.31,2.96,5.95,6.32,5.95,3.18,0,5.81-2.35,6.27-5.4l2.51,2.43-2.26,2.4c-.42.44-.4,1.14.03,1.56l2.27,2.23-1.39,1.42-2.18-2.22c-.21-.21-.5-.33-.8-.33s-.59.12-.8.33l-2.18,2.22-2.18-2.22c-.21-.21-.5-.33-.8-.33s-.59.12-.8.33l-2.18,2.22-2.18-2.22c-.21-.21-.5-.33-.8-.33s-.59.12-.8.33l-2.18,2.22c.23-.67.35-1.37.35-2.09,0-3.11-2.32-5.8-5.39-6.27-.61-.09-1.18.33-1.27.94-.09.61.33,1.18.94,1.27,1.96.28,3.57,2.15,3.48,4.22l-.29-.29c-.21-.21-.5-.33-.8-.33s-.59.12-.8.33l-2.18,2.22-2.18-2.22c-.21-.21-.49-.33-.79-.33h0c-.3,0-.58.12-.79.33l-.36.36c-.05-.87.25-2.04,1-2.92.41-.47.36-1.17-.11-1.58-.47-.41-1.17-.36-1.58.11-1,1.15-1.56,2.63-1.56,4.16,0,.73.12,1.44.36,2.11l-4.36,4.36c-.21.21-.33.5-.33.8s.12.58.33.79h0Zm12.6,12.6l2.22,2.18-2.22,2.18c-.21.21-.33.5-.33.8s.12.59.33.8l2.22,2.18-2.22,2.18c-.21.21-.33.5-.33.8s.12.59.33.8l2.22,2.18-2.22,2.18c-.21.21-.33.5-.33.8s.12.59.33.8l2.22,2.18-2.22,2.18c-.21.21-.33.5-.33.8s.12.59.33.8l2.22,2.18-1.42,1.39-2.23-2.27c-.21-.21-.5-.33-.8-.33s-.59.12-.8.33l-2.18,2.22-5.01-5.01,2.22-2.18c.21-.21.33-.5.33-.8s-.12-.59-.33-.8l-2.22-2.18,2.22-2.18c.21-.21.33-.5.33-.8s-.12-.59-.33-.8l-2.22-2.18,2.22-2.18c.21-.21.33-.5.33-.8s-.12-.59-.33-.8l-2.22-2.18,2.22-2.18c.21-.21.33-.5.33-.8s-.12-.59-.33-.8l-2.22-2.18,2.22-2.18c.21-.21.33-.5.33-.8s-.12-.59-.33-.8l-2.22-2.18,2.22-2.18c.21-.21.33-.5.33-.8s-.12-.59-.33-.8l-2.22-2.18,5.01-5.01,2.18,2.22c.21.21.5.33.8.33s.59-.12.8-.33l2.18-2.22,2.18,2.22c.21.21.5.33.8.33s.59-.12.8-.33l2.18-2.22,2.18,2.22c.21.21.5.33.8.33s.59-.12.8-.33l2.18-2.22,2.18,2.22c.21.21.5.33.8.33s.59-.12.8-.33l2.18-2.22,2.18,2.22c.21.21.5.33.8.33s.59-.12.8-.33l2.18-2.22,2.18,2.22c.21.21.5.33.8.33s.59-.12.8-.33l2.2-2.24,5,4.84-2.26,2.4c-.42.44-.4,1.14.03,1.56l2.27,2.23-1.39,1.42-2.18-2.22c-.21-.21-.5-.33-.8-.33s-.59.12-.8.33l-2.18,2.22-2.18-2.22c-.21-.21-.5-.33-.8-.33s-.59.12-.8.33l-2.18,2.22-2.18-2.22c-.21-.21-.5-.33-.8-.33s-.59.12-.8.33l-2.18,2.22-2.18-2.22c-.21-.21-.5-.33-.8-.33s-.59.12-.8.33l-2.18,2.22-2.18-2.22c-.21-.21-.49-.33-.79-.33h0c-.3,0-.58.12-.79.33l-6.61,6.61c-.21.21-.33.5-.33.8,0,.3.12.58.33.79h0Zm4.59,1.38l-2.22-2.18,5.01-5.01,2.18,2.22c.21.21.5.33.8.33s.59-.12.8-.33l2.18-2.22,1.4,1.43-10.93,10.93-1.43-1.4,2.22-2.18c.21-.21.33-.5.33-.8s-.12-.59-.33-.8h0Zm0,11.89l-2.22-2.18,16.91-16.9,2.18,2.22c.21.21.5.33.8.33s.59-.12.8-.33l2.18-2.22,1.4,1.42-22.83,22.83-1.43-1.4,2.22-2.18c.21-.21.33-.5.33-.8s-.12-.59-.33-.8h0Zm26.58,26.63l-2.18-2.22c-.21-.21-.5-.33-.8-.33s-.59.12-.8.33l-2.18,2.22-1.4-1.42,4.76-4.76c.44-.44.44-1.14,0-1.58-.44-.44-1.14-.44-1.58,0l-7.73,7.76-2.18-2.22c-.21-.21-.5-.33-.8-.33s-.59.12-.8.33l-2.18,2.22-1.4-1.42,34.72-34.72,1.43,1.4-2.22,2.18c-.21.21-.33.5-.33.8s.12.59.33.8l2.22,2.18-2.22,2.18s0,0,0,0c0,0,0,0,0,0l-15.17,15.17c-.44.44-.44,1.14,0,1.58.22.22.5.33.79.33s.57-.11.79-.33l14.39-14.39,1.42,1.4-2.22,2.18c-.21.21-.33.5-.33.8s.12.59.33.8l2.22,2.18-16.91,16.9Zm11.9,0l-2.18-2.22c-.21-.21-.5-.33-.8-.33s-.59.12-.8.33l-2.18,2.22-1.4-1.42,10.93-10.93,1.42,1.4-2.22,2.18c-.21.21-.33.5-.33.8s.12.59.33.8l2.22,2.18-5.01,5.01Zm-35.7,0l-5.01-5.01,28.64-28.6c.44-.44.44-1.14,0-1.58-.44-.44-1.14-.44-1.58,0l-25.62,25.62-1.43-1.4,2.22-2.18c.21-.21.33-.5.33-.8s-.12-.59-.33-.8l-2.22-2.18,28.8-28.8,2.18,2.22c.21.21.5.33.8.33s.59-.12.8-.33l2.18-2.22,1.4,1.42-5.43,5.43c-.44.44-.44,1.14,0,1.58.22.22.5.33.79.33s.57-.11.79-.33l8.41-8.45,5,4.84-40.71,40.89Z" fill="#1A808D"></path><path class="cls-2" d="m61.53,71.12h0c-.62,0-1.12.5-1.12,1.12s.5,1.12,1.12,1.12,1.12-.5,1.12-1.12-.5-1.12-1.12-1.12h0Z" fill="#1A808D"></path><path class="cls-2" d="m66.71,68.39c0-.62-.5-1.12-1.12-1.12h0c-.62,0-1.12.5-1.12,1.12s.5,1.12,1.12,1.12,1.12-.5,1.12-1.12h0Z" fill="#1A808D"></path><path class="cls-2" d="m71.46,69.5c.62,0,1.12-.5,1.12-1.12s-.5-1.12-1.12-1.12h0c-.62,0-1.12.5-1.12,1.12s.5,1.12,1.12,1.12h0Z" fill="#1A808D"></path><path class="cls-2" d="m77.42,69.5c.62,0,1.12-.5,1.12-1.12s-.5-1.12-1.12-1.12h0c-.62,0-1.12.5-1.12,1.12s.5,1.12,1.12,1.12Z" fill="#1A808D"></path><path class="cls-2" d="m83.39,69.5c.62,0,1.12-.5,1.12-1.12s-.5-1.12-1.12-1.12h0c-.62,0-1.12.5-1.12,1.12s.5,1.12,1.12,1.12Z" fill="#1A808D"></path><path class="cls-2" d="m89.35,69.5c.62,0,1.12-.5,1.12-1.12s-.5-1.12-1.12-1.12h0c-.62,0-1.12.5-1.12,1.12s.5,1.12,1.12,1.12Z" fill="#1A808D"></path><path class="cls-2" d="m95.31,69.5c.62,0,1.12-.5,1.12-1.12s-.5-1.12-1.12-1.12h0c-.62,0-1.12.5-1.12,1.12s.5,1.12,1.12,1.12Z" fill="#1A808D"></path><path class="cls-2" d="m61.53,77.09h0c-.62,0-1.12.5-1.12,1.12s.5,1.12,1.12,1.12,1.12-.5,1.12-1.12-.5-1.12-1.12-1.12h0Z" fill="#1A808D"></path><path class="cls-2" d="m61.53,83.05h0c-.62,0-1.12.5-1.12,1.12s.5,1.12,1.12,1.12,1.12-.5,1.12-1.12-.5-1.12-1.12-1.12h0Z" fill="#1A808D"></path><path class="cls-2" d="m61.53,89.01h0c-.62,0-1.12.5-1.12,1.12s.5,1.12,1.12,1.12,1.12-.5,1.12-1.12-.5-1.12-1.12-1.12h0Z" fill="#1A808D"></path><path class="cls-2" d="m61.53,94.98h0c-.62,0-1.12.5-1.12,1.12s.5,1.12,1.12,1.12,1.12-.5,1.12-1.12-.5-1.12-1.12-1.12h0Z" fill="#1A808D"></path><path class="cls-2" d="m61.53,100.94h0c-.62,0-1.12.5-1.12,1.12s.5,1.12,1.12,1.12,1.12-.5,1.12-1.12-.5-1.12-1.12-1.12h0Z" fill="#1A808D"></path></g></svg>